<svg width="400" height="283" viewBox="0 0 400 283" fill="none" xmlns="http://www.w3.org/2000/svg">
<g clip-path="url(#clip0_1_2)">
<path d="M400 141.5C400 219.648 310.457 283 200 283C89.543 283 0 219.648 0 141.5C0 63.3517 89.543 0 200 0C310.457 0 136.047 209.664 400 141.5Z" fill="black"/>
<path d="M189.535 143.093C190.295 215.538 302.724 272.313 201.376 273.008C100.028 273.703 17.2523 215.538 16.4923 143.093C15.7323 70.6477 97.2755 11.3557 198.624 10.6606C299.972 9.96555 188.774 70.6477 189.535 143.093Z" fill="#7A1E1C"/>
<path d="M369.707 142.903C370.383 207.295 295.47 260.012 202.386 260.651C109.301 261.289 33.294 209.607 32.6185 145.215C31.9429 80.8227 106.855 28.105 199.94 27.4666C293.024 26.8282 369.031 78.5107 369.707 142.903Z" fill="#9B6E3C"/>
<path d="M74.7194 112.599C96.5054 55.6972 170.267 23.7415 239.472 41.2248C308.676 58.708 347.116 119.009 325.33 175.912C303.544 232.815 229.783 264.771 160.578 247.287C91.3736 229.804 259.095 104.746 74.7194 112.599Z" fill="black"/>
<path d="M207.036 144.681C226.087 91.6506 170.676 33.1192 234.609 47.9924C298.542 62.8656 334.927 117.912 315.876 170.942C296.826 223.972 229.554 254.904 165.621 240.031C101.687 225.158 187.986 197.711 207.036 144.681Z" fill="#7A1E1C"/>
<path d="M93.6609 117.476C110.594 70.3409 171.922 43.2043 230.643 56.8647C289.363 70.5252 323.238 119.81 306.305 166.945C289.372 214.08 228.043 241.217 169.323 227.556C110.603 213.895 76.728 164.611 93.6609 117.476Z" fill="#9B6E3C"/>
<path d="M296.603 152.224C289.46 197.567 240.548 229.884 187.355 224.405C134.162 218.926 96.8307 177.727 103.974 132.383C111.118 87.0391 160.03 54.7222 213.223 60.2012C266.417 65.6801 163.259 178.682 296.603 152.224Z" fill="black"/>
<path d="M195.103 142.708C188.848 184.78 237.801 223.299 188.93 218.675C140.06 214.052 105.515 176.197 111.771 134.125C118.028 92.0527 162.716 61.6946 211.586 66.3185C260.457 70.9422 201.36 100.636 195.103 142.708Z" fill="#7A1E1C"/>
<path d="M281.887 151.535C276.327 188.93 235.431 215.803 190.547 211.556C145.66 207.309 113.782 173.551 119.343 136.156C124.903 98.7604 165.799 71.8882 210.684 76.135C255.57 80.3817 287.448 114.139 281.887 151.535Z" fill="#9B6E3C"/>
<path d="M140.436 129.923C151.287 102.04 188.053 86.551 222.556 95.3296C257.057 104.107 276.23 133.828 265.378 161.712C254.527 189.597 217.76 205.086 183.259 196.307C148.757 187.528 232.349 126.579 140.436 129.923Z" fill="black"/>
<path d="M206.397 146.082C216.219 120.172 188.985 90.9789 220.738 98.7849C252.492 106.591 270.27 133.924 260.448 159.834C250.626 185.743 216.922 200.419 185.169 192.613C153.415 184.807 196.574 171.992 206.397 146.082Z" fill="#7A1E1C"/>
<path d="M150.093 131.831C158.823 108.801 189.543 95.9445 218.707 103.114C247.871 110.283 264.436 134.765 255.706 157.795C246.976 180.825 216.256 193.681 187.092 186.511C157.927 179.342 141.363 154.86 150.093 131.831Z" fill="#9B6E3C"/>
<path d="M248.294 155.932C242.563 175.149 218.67 186.975 194.929 182.345C171.187 177.716 156.587 158.385 162.319 139.167C168.05 119.951 191.943 108.125 215.684 112.754C239.426 117.383 186.562 161.632 248.294 155.932Z" fill="black"/>
<path d="M202.941 147.503C197.791 165.349 217.792 184.022 195.957 179.946C174.123 175.869 160.598 158.097 165.747 140.25C170.897 122.404 192.772 111.242 214.607 115.318C236.441 119.395 208.09 129.656 202.941 147.503Z" fill="#7A1E1C"/>
<path d="M241.68 155.007C237.102 170.87 217.135 180.694 197.08 176.949C177.027 173.205 164.48 157.31 169.057 141.448C173.635 125.585 193.602 115.761 213.657 119.506C233.71 123.25 246.257 139.145 241.68 155.007Z" fill="#9B6E3C"/>
<path d="M179.64 137.087C187.115 125.181 204.984 120.377 219.55 126.357C234.116 132.338 239.864 146.837 232.388 158.742C224.912 170.648 207.043 175.452 192.477 169.472C177.91 163.491 220.969 140.992 179.64 137.087Z" fill="black"/>
<path d="M207.547 148.238C214.377 137.161 204.981 122.424 218.413 127.805C231.844 133.187 237.195 146.529 230.365 157.607C223.535 168.685 207.109 173.303 193.678 167.921C180.247 162.541 200.715 159.317 207.547 148.238Z" fill="#7A1E1C"/>
<path d="M183.769 138.513C189.84 128.666 204.762 124.691 217.098 129.633C229.434 134.575 234.513 146.564 228.442 156.411C222.371 166.257 207.449 170.232 195.113 165.291C182.776 160.348 177.697 148.36 183.769 138.513Z" fill="#9B6E3C"/>
<path d="M223.972 146.031C224.61 154.795 216.898 162.292 206.745 162.775C196.593 163.258 187.845 156.545 187.207 147.781C186.569 139.017 194.281 131.521 204.435 131.037C214.587 130.554 200.269 154.83 223.972 146.031Z" fill="black"/>
<path d="M204.641 147.13C205.302 155.251 216.1 161.127 206.79 161.648C197.48 162.169 189.398 156.008 188.736 147.888C188.074 139.766 195.085 132.76 204.395 132.239C213.705 131.717 203.979 139.009 204.641 147.13Z" fill="#7A1E1C"/>
<path d="M221.2 146.32C221.787 153.539 215.333 159.779 206.783 160.258C198.231 160.736 190.823 155.273 190.236 148.055C189.648 140.836 196.102 134.597 204.653 134.118C213.203 133.639 220.612 139.102 221.2 146.32Z" fill="#9B6E3C"/>
<rect x="285.5" y="48.5" width="82" height="46" rx="7.5" stroke="#373F85" stroke-width="5"/>
<rect x="318" y="97" width="18" height="17" fill="#373F85"/>
<rect x="302" y="114" width="50" height="8" fill="#373F85"/>
</g>
<defs>
<clipPath id="clip0_1_2">
<rect width="400" height="283" fill="white"/>
</clipPath>
</defs>
</svg>
